<svg width="32" height="32" fill="none" xmlns="http://www.w3.org/2000/svg"><mask id="a" maskUnits="userSpaceOnUse" x="0" y="0" width="32" height="32"><rect width="32" height="32" rx="3" fill="#0B85F5"/></mask><g mask="url(#a)"><path fill="#0085FF" d="M0 0h32v32H0z"/><path d="M3.5 0v34.133M8.5 0v34.133M13.5 0v34.133M18.5 0v34.133M23.5 0v34.133M28.5 0v34.133M0 28.5h32m-32-5h32m-32-5h32m-32-5h32m-32-5h32m-32-5h32" opacity=".15" stroke="#000" stroke-width=".5"/><circle cx="9.928" cy="6.564" r="2.79" fill="#fff"/><path fill="#fff" d="M16 13h9v2h-9z"/><circle cx="20.595" cy="25.436" r="2.79" fill="#fff"/><path opacity=".5" fill-rule="evenodd" clip-rule="evenodd" d="M9.928 10.83l1.706 3.2H10.44c.19 5.21 2.641 7.953 5.06 9.42a11.75 11.75 0 001.528.777c-.112.314-.181.65-.201.998-.593-.24-1.219-.54-1.845-.92-2.69-1.631-5.35-4.68-5.543-10.274H8.223l1.705-3.2zm10.995 7.632H22.3l-1.705 3.2-1.705-3.2h1.377v-2.79h.656v2.79zm-7.32-11.534a3.736 3.736 0 00-.04-1.017c1.635.226 3.5.966 4.774 2.905l1.05-.607.124 3.624-3.077-1.918 1.035-.598c-1.03-1.532-2.494-2.167-3.866-2.39z" fill="#fff"/></g></svg>